<?xml version="1.0" encoding="UTF-8"?>
<svg id="Logo" xmlns="http://www.w3.org/2000/svg" version="1.1" viewBox="0 0 394.9 95.6">
  <defs>
    <style>
      .cls-1 {
        fill: #808285;
      }

      .cls-1, .cls-2, .cls-3, .cls-4 {
        stroke-width: 0px;
      }

      .cls-2 {
        fill: #3080c3;
      }

      .cls-3 {
        fill: #0baedd;
      }

      .cls-4 {
        fill: #8ac8e8;
      }
    </style>
  </defs>
  <g>
    <path class="cls-4" d="M17.9,66.4c-2.2,0-4-1.8-4-4v-29.1c0-2.2,1.8-4,4-4s4,1.8,4,4v29.1c0,2.2-1.8,4-4,4Z"/>
    <path class="cls-3" d="M65.9,66.4c-2.2,0-4-1.8-4-4v-29.1c0-2.2,1.8-4,4-4s4,1.8,4,4v29.1c0,2.2-1.8,4-4,4Z"/>
    <path class="cls-2" d="M41.9,78.1c-2.2,0-4-1.8-4-4V21.6c0-2.2,1.8-4,4-4s4,1.8,4,4v52.4c0,2.2-1.8,4-4,4Z"/>
  </g>
  <g>
    <path class="cls-1" d="M166.9,31.9c0-1.4,1.2-2.7,2.6-2.7s2.7,1.2,2.7,2.7v31.3c0,1.5-1.1,2.7-2.6,2.7s-2.7-1.2-2.7-2.7v-31.3Z"/>
    <path class="cls-1" d="M186.5,47.7h0c0,8.5,5.8,13.9,12.5,13.9s12.9-5.6,12.9-13.8h0c0-8.3-6.3-13.8-12.9-13.8s-12.5,5.1-12.5,13.7M217,63.2c0,1.5-1.2,2.7-2.6,2.7s-2.7-1.2-2.7-2.7v-3.8c-2.9,4.3-7.1,6.9-13.6,6.9s-17-6.7-17-18.4h0c0-11.8,8.5-18.6,17-18.6s10.9,2.6,13.6,6.6v-15.6c0-1.5,1.1-2.7,2.6-2.7s2.7,1.2,2.7,2.7v43Z"/>
    <path class="cls-1" d="M354.6,61.8c-.5-.3-1-1-1-1.9s1-2.3,2.3-2.3,1,.1,1.3.4c3.6,2.5,7.4,3.8,11.3,3.8s7.4-2.2,7.4-5.6h0c0-3.7-4.2-5.1-8.9-6.4-5.6-1.6-11.8-3.5-11.8-10h0c0-6.3,5.1-10.3,12.1-10.3s7.9,1.2,11.4,3c.7.4,1.3,1.2,1.3,2.2s-1,2.3-2.3,2.3-.9-.1-1.2-.3c-3-1.7-6.3-2.8-9.3-2.8s-6.9,2.2-6.9,5.2h0c0,3.5,4.4,4.8,9.1,6.3,5.5,1.7,11.4,3.8,11.4,10.2h0c0,6.9-5.6,10.8-12.7,10.8s-9.8-1.7-13.7-4.5"/>
    <path class="cls-1" d="M346,44.2c0-8-7-15-15.5-15s-15.5,6.9-15.5,15.5v18.3c0,1.6,1.2,2.8,2.8,2.8s2.7-1.2,2.7-2.8v-8.2s0-10.6,0-10.6c0-5.5,4.5-10,10-10s10,4.5,10,10v18.9c0,1.6,1.2,2.8,2.7,2.8s2.8-1.2,2.8-2.8c0,0,0-17.1,0-18.9"/>
    <path class="cls-1" d="M305.6,43.8h0c-.5-7.6-7.3-14.1-15.4-14.1h-2.4c-1.4,0-2.5,1.1-2.5,2.5s1.1,2.5,2.5,2.5h2.4c5.5,0,10.4,4.5,10.4,10v.4c-3.2-.9-6.4-1.5-10.9-1.5-9,0-15.2,4-15.2,11.5h0c0,7.4,6.4,11.2,13,11.2s10.7-3.1,13.2-7v4.1c0,1.4,1.1,2.5,2.5,2.5s2.5-1.1,2.5-2.5v-19.5ZM288.3,61.6c-4.8,0-8.6-2.1-8.6-6.5h0c0-4.6,3.7-7.5,10.4-7.5s10.5,1.4,10.5,1.5h0c0,6.5-6.1,12.5-12.2,12.5Z"/>
    <path class="cls-1" d="M273.4,32.2c0-1.4-1.1-2.5-2.5-2.5h-1.7s0,0,0,0c-8.6,0-15.5,6.9-15.5,15.5v17.9c0,1.6,1.2,2.8,2.8,2.8s2.7-1.2,2.7-2.8v-8.2s0-10.2,0-10.2c0-5.5,4.5-10,10-10s0,0,0,0h0s1.7,0,1.7,0c1.4,0,2.5-1.1,2.5-2.5Z"/>
    <path class="cls-1" d="M244.8,32.1h0c0-1.3-1-2.3-2.3-2.3h-9.3v-9.3c0-1.5-1.2-2.8-2.7-2.8s-2.6,1.2-2.6,2.7v35.9c0,7.2,4.3,10,10,10s3.7-.3,5.2-1c.9-.3,1.5-1.1,1.5-2.1s-1-2.3-2.3-2.3-1.4.5-3.2.5c-3.6,0-6-1.6-6-5.9v-21h9.3c1.3,0,2.3-1,2.3-2.3Z"/>
    <path class="cls-1" d="M141.1,29.2c-5.1,0-9.5,2.5-12.2,6.4-2.7-3.9-7.1-6.4-12.1-6.4-8.2,0-14.8,6.6-14.8,14.8v19.2c0,1.5,1.2,2.7,2.7,2.7s2.6-1.2,2.6-2.7v-19.7c0-5.3,4.3-9.5,9.5-9.5s9.5,4.3,9.5,9.5v17.5s0,0,0,0c0,0,0,0,0,0,0,1.5,1.2,2.6,2.6,2.6s2.6-1.2,2.6-2.6v-17.5c0-5.3,4.3-9.5,9.5-9.5s9.5,4.3,9.5,9.5v19.7c0,1.5,1.2,2.7,2.6,2.7s2.7-1.2,2.7-2.7v-19.1c0-8.4-7-14.9-14.8-14.9Z"/>
  </g>
</svg>